<svg xmlns="http://www.w3.org/2000/svg" xmlns:xlink="http://www.w3.org/1999/xlink" width="20" height="20" version="1.1" viewBox="0 0 20 20"><title>linkedin@1x</title><desc>Created with Sketch.</desc><g id="Hiro" fill="none" fill-rule="evenodd" stroke="none" stroke-width="1"><g id="Costomark-Agency" fill="#000" fill-rule="nonzero" transform="translate(-677.000000, -4094.000000)"><g id="Stacked-Group-5" transform="translate(641.000000, 4094.000000)"><g id="linkedin" transform="translate(36.000000, 0.000000)"><path id="Path" d="M19.995,20 L19.995,19.9991667 L20,19.9991667 L20,12.6641667 C20,9.07583333 19.2275,6.31166667 15.0325,6.31166667 C13.0158333,6.31166667 11.6625,7.41833333 11.11,8.4675 L11.0516667,8.4675 L11.0516667,6.64666667 L7.07416667,6.64666667 L7.07416667,19.9991667 L11.2158333,19.9991667 L11.2158333,13.3875 C11.2158333,11.6466667 11.5458333,9.96333333 13.7016667,9.96333333 C15.8258333,9.96333333 15.8575,11.95 15.8575,13.4991667 L15.8575,20 L19.995,20 Z"/><polygon id="Path" points=".33 6.647 4.477 6.647 4.477 20 .33 20"/><path id="Path" d="M2.40166667,0 C1.07583333,0 0,1.07583333 0,2.40166667 C0,3.7275 1.07583333,4.82583333 2.40166667,4.82583333 C3.7275,4.82583333 4.80333333,3.7275 4.80333333,2.40166667 C4.8025,1.07583333 3.72666667,0 2.40166667,0 Z"/></g></g></g></g></svg>